<svg width="235" height="14" viewBox="0 0 235 14" fill="none" xmlns="http://www.w3.org/2000/svg">
<path id="Vector 2" d="M1.08238 12.7213C3.09371 10.7062 7.69571 7.25732 10.013 9.58269C12.9096 12.4894 17.6115 10.9155 19.0017 9.40646C20.3919 7.89743 23.3799 3.39358 26.04 6.30495C28.7 9.21632 31.4024 10.3169 33.1799 8.38761C34.5701 6.87862 41.3646 3.41146 45.0071 8.15573C47.9211 11.9511 54.392 8.07183 55.6221 6.44249C58.706 2.80894 63.3265 1.10533 71.5001 7.63639C80.0232 14.4467 83.1884 8.36376 87.2973 4.71011C89.4541 2.06696 93.3531 -0.224286 98.6515 4.48758C104.094 9.32758 106.552 9.17175 109.605 7.97714C112.658 6.78253 114.456 1.95508 117.339 4.12121C119.427 6.05593 124.161 9.32175 126.385 6.90734C129.166 3.88934 133.926 5.27774 135.374 6.73112C136.822 8.1845 139.984 12.5678 142.528 9.55437C145.072 6.54098 147.73 5.33532 149.581 7.19346C151.03 8.64681 157.955 11.845 161.408 6.96159C164.171 3.05488 170.789 6.67757 172.082 8.25745C175.306 11.7673 179.99 13.2885 187.901 6.44212C196.151 -0.697006 199.552 5.25718 203.801 8.74696C206.06 11.3035 210.046 13.4402 215.155 8.52429C220.404 3.4747 222.867 3.53405 225.964 4.60808C229.061 5.68212 231.047 10.4354 233.842 8.15793" stroke="#B7D660" stroke-width="2"/>
</svg>
