<svg width="209" height="105" viewBox="0 0 209 105" fill="none" xmlns="http://www.w3.org/2000/svg">
<path id="Vector" d="M160.252 88.4718C168.05 99.1571 184.699 98.5147 191.644 87.2294C211.973 91.2066 214.892 58.0238 194.226 58.335C192.3 45.8298 178.214 38.6935 167.068 44.2896C162.502 36.5866 152.808 33.096 144.421 36.1025C140.439 16.686 116.57 8.26479 101.303 20.4391C102.304 -6.26446 60.1251 -5.51705 62.0809 21.1512C43.4849 16.941 24.8443 32.352 25.6764 51.6269C-20.0821 40.9799 4.24619 120.952 36.2475 89.8823C47.5423 107.35 73.6682 107.876 85.6615 90.9037C95.5126 109.035 122.192 109.425 132.579 91.6152C140.807 98.7719 153.804 97.3061 160.252 88.4718Z" fill="#90CCE9"/>
</svg>
