<svg width="107" height="104" viewBox="0 0 107 104" fill="none" xmlns="http://www.w3.org/2000/svg">
<g id="Frame 155">
<path id="Vector 4" d="M62.4829 3L59.3756 11.4341L56.7122 18.9805M26.9707 8.32683L38.9561 22.9756M26.9707 38.5122L6.55122 40.2878M90.8927 11.4341L71.8049 28.3026M103.766 40.2878H92.2244H82.4585M101.546 80.6829C100.836 80.6829 85.8618 70.3252 78.4634 65.1464M67.3659 77.5756L74.0244 91.3366M51.3854 82.4586L46.9464 100.659M33.1854 72.2488L13.2098 95.7756M22.0878 61.5951L3 67.3659M62.4829 30.5221C61.0033 29.3384 56.7122 27.2373 51.3854 28.3026C44.7268 29.6343 38.9561 33.1854 36.7366 38.5122C34.5171 43.839 28.7464 54.9366 35.4049 61.5951C42.0634 68.2537 54.0488 78.9073 66.0342 69.1415C78.0195 59.3756 78.9073 50.0537 75.3561 44.2829C72.5151 39.6663 65.5903 33.1855 62.4829 30.5221Z" stroke="#FF9B3F" stroke-width="5" stroke-linecap="round" stroke-linejoin="round"/>
<path id="Vector 9" d="M64.1384 44.8606C63.8501 44.5542 63.6734 44.1989 63.4586 43.8408" stroke="#FF9B3F" stroke-width="5" stroke-linecap="round"/>
<path id="Vector 10" d="M51.3918 48.7699C51.2241 48.5392 50.6188 47.1794 50.8442 48.1656C50.9975 48.8364 50.8104 49.0293 51.5618 49.2797" stroke="#FF9B3F" stroke-width="5" stroke-linecap="round"/>
<path id="Vector 11" d="M64.8186 52.1689C63.9615 53.3475 63.9832 55.4556 63.4212 56.8334C62.767 58.4372 61.5152 59.754 60.2108 60.8557C59.1162 61.7803 57.7449 62.1169 56.3962 62.5365C54.286 63.1929 52.2598 62.8873 50.5987 61.2901C49.4295 60.1658 50.2021 59.3628 50.2021 58.1175" stroke="#FF9B3F" stroke-width="5" stroke-linecap="round"/>
</g>
</svg>
