<svg width="85" height="70" viewBox="0 0 85 70" fill="none" xmlns="http://www.w3.org/2000/svg">
<g id="Frame 153">
<path id="Vector 6" d="M57.3771 61.5866L47.1585 40.7175M40.9838 28.1072L47.1585 40.7175M47.1585 40.7175C47.5631 28.9716 52.2513 6.68029 67.7674 11.4829C83.2834 16.2854 87.9285 30.4257 75.046 39.3048M47.1585 40.7175C43.223 36.9396 47.0083 40.4109 47.1585 40.7175ZM47.1585 40.7175C51.094 44.4955 55.2732 44.1279 56.0781 44.2529M47.1585 40.7175C30.1603 33.8925 -2.56244 26.4094 2.53239 51.078C6.34244 69.5257 17.6678 69.8509 27.3187 65.623M47.1585 40.7175C47.1585 42.2793 46.7069 45.4323 45.2223 48.9877M75.046 39.3048C73.7537 40.0304 76.8584 38.4504 75.046 39.3048ZM75.046 39.3048C77.1296 42.3674 80.0468 49.0098 75.0462 51.078C68.7954 53.6632 60.2641 53.9333 56.0781 44.2529M75.046 39.3048C69.0926 42.1114 61.0972 45.032 56.0781 44.2529M45.2223 48.9877C44.4012 50.954 43.2641 53.0435 41.7127 55.055C39.5249 57.8916 33.7993 62.7838 27.3187 65.623M45.2223 48.9877C47.2902 54.7949 47.7277 66.5751 32.9348 67.2389C30.2455 67.2389 28.0702 66.1616 27.3187 65.623" stroke="#90CCE9" stroke-width="4" stroke-linecap="round"/>
<path id="Vector 7" d="M43.2739 9.49626C43.2739 9.92853 43.2384 10.3766 43.2794 10.807C43.3187 11.2201 43.4897 12.2107 43.8806 12.3994C44.8076 12.847 46.9787 12.7434 47.3471 11.5924C47.5219 11.0461 47.4905 10.3732 47.7262 9.8429C47.9771 9.27834 48.0512 8.79762 48.0512 8.1855C48.0512 7.68141 48.1311 7.10774 48.0079 6.61475C47.8847 6.12234 47.8262 5.43406 47.5962 4.98984C47.0784 3.98996 46.1068 3.25845 45.1047 2.84495C44.5424 2.61296 43.7207 2 43.0952 2C42.4057 2 41.7399 2.3272 41.1561 2.6608C40.0358 3.30097 38.9934 4.17618 38.1609 5.16316C37.4741 5.97729 36.9052 6.96114 36.4601 7.92551C36.0246 8.86918 36.182 9.84113 36.1081 10.8612C36.0557 11.5844 36.0593 12.3027 36.0593 13.0277C36.0593 13.8986 35.8643 14.7382 35.8643 15.6113C35.8643 17.8226 37.5497 19.5996 39.1792 20.9031" stroke="#90CCE9" stroke-width="4" stroke-linecap="round"/>
<path id="Vector 8" d="M35.4746 27.4354C35.5827 26.2818 35.0584 25.5348 34.3805 24.6406C33.7106 23.7569 33.1765 22.8094 32.4306 21.9757C31.3429 20.7601 30.0422 19.9355 28.6879 19.0617C28.4495 18.9079 28.2824 18.7227 28.065 18.5526C27.8755 18.4043 27.5724 18.472 27.35 18.4226C26.4802 18.2293 25.7986 17.6983 24.8639 17.7564C23.494 17.8414 22.1168 18.1427 20.7746 18.4117C20.1801 18.5309 19.5515 18.6311 19.0088 18.9209C17.9374 19.4931 17.2107 20.7776 17.0427 21.954C16.9835 22.3684 16.9147 22.8624 16.8098 23.2648C16.6896 23.7257 16.3143 24.0691 16.1869 24.4727C16.0991 24.7508 16.1578 25.1753 16.1706 25.4639C16.1883 25.8622 16.8198 25.9431 17.1023 26.0867C17.6064 26.3431 18.0112 26.6724 18.5322 26.8938C19.386 27.2567 20.2963 27.456 21.17 27.7712C21.9308 28.0458 22.4173 28.3611 23.1686 27.9987C23.6811 27.7515 24.475 27.4637 24.7177 26.8938C24.8545 26.5724 24.8778 26.2121 24.9452 25.8755" stroke="#90CCE9" stroke-width="4" stroke-linecap="round"/>
</g>
</svg>
