<svg width="565" height="16" viewBox="0 0 565 16" fill="none" xmlns="http://www.w3.org/2000/svg">
<path d="M1 11.1598C5.95867 9.18452 17.2492 5.82653 22.7419 8.19687C29.6077 11.1598 41.0508 9.67836 44.4837 8.19687C47.9167 6.71538 55.3547 2.27097 61.6484 5.23392C67.9421 8.19688 74.4239 9.35022 78.813 7.45613C82.2459 5.97468 98.8384 2.64137 107.421 7.45613C114.287 11.3079 130.116 7.55621 133.168 5.95129C140.796 2.37889 152.049 0.766169 171.502 7.45619C191.787 14.4322 199.728 8.41253 209.836 4.84013C215.176 2.23976 224.712 0.0253834 237.3 4.8402C250.229 9.78595 256.181 9.67833 263.619 8.5438C271.057 7.40926 275.634 2.61799 282.5 4.8402C287.459 6.81548 298.749 10.1735 304.242 7.80313C311.108 4.8402 322.551 6.32164 325.984 7.80313C329.417 9.28462 336.855 13.729 343.148 10.7661C349.442 7.80312 355.924 6.64978 360.313 8.54387C363.746 10.0253 380.338 13.3586 388.921 8.54387C395.787 4.69207 411.616 8.44379 414.668 10.0487C422.296 13.6211 433.549 15.2338 453.002 8.54381C473.287 1.56776 481.228 7.58747 491.336 11.1599C496.676 13.7602 506.212 15.9746 518.8 11.1598C531.729 6.21405 537.681 6.32166 545.119 7.4562C552.557 8.59074 557.134 13.382 564 11.1598" stroke="#B7D660" stroke-width="4"/>
</svg>
