<svg width="86" height="70" viewBox="0 0 86 70" fill="none" xmlns="http://www.w3.org/2000/svg">
<g id="Frame 153">
<path id="Vector 6" d="M28.141 61.5866L38.3596 40.7175M44.5343 28.1072L38.3596 40.7175M38.3596 40.7175C37.955 28.9716 33.2667 6.68029 17.7507 11.4829C2.23469 16.2854 -2.41045 30.4257 10.472 39.3048M38.3596 40.7175C42.2951 36.9396 38.5097 40.4109 38.3596 40.7175ZM38.3596 40.7175C34.4241 44.4955 30.2449 44.1279 29.4399 44.2529M38.3596 40.7175C55.3578 33.8925 88.0805 26.4094 82.9857 51.078C79.1756 69.5257 67.8502 69.8509 58.1994 65.623M38.3596 40.7175C38.3596 42.2793 38.8112 45.4323 40.2958 48.9877M10.472 39.3048C11.7643 40.0304 8.65967 38.4504 10.472 39.3048ZM10.472 39.3048C8.38844 42.3674 5.47128 49.0098 10.4719 51.078C16.7227 53.6632 25.2539 53.9333 29.4399 44.2529M10.472 39.3048C16.4255 42.1114 24.4208 45.032 29.4399 44.2529M40.2958 48.9877C41.1169 50.954 42.254 53.0435 43.8054 55.055C45.9932 57.8916 51.7187 62.7838 58.1994 65.623M40.2958 48.9877C38.2279 54.7949 37.7904 66.5751 52.5833 67.2389C55.2726 67.2389 57.4479 66.1616 58.1994 65.623" stroke="#FF9B3F" stroke-width="4" stroke-linecap="round"/>
<path id="Vector 7" d="M42.2441 9.49626C42.2441 9.92853 42.2797 10.3766 42.2387 10.807C42.1994 11.2201 42.0284 12.2107 41.6375 12.3994C40.7105 12.847 38.5394 12.7434 38.171 11.5924C37.9962 11.0461 38.0276 10.3732 37.7919 9.8429C37.5409 9.27834 37.4669 8.79762 37.4669 8.1855C37.4669 7.68141 37.387 7.10774 37.5102 6.61475C37.6333 6.12234 37.6918 5.43406 37.9219 4.98984C38.4397 3.98996 39.4113 3.25845 40.4134 2.84495C40.9756 2.61296 41.7974 2 42.4229 2C43.1124 2 43.7781 2.3272 44.3619 2.6608C45.4822 3.30097 46.5246 4.17618 47.3572 5.16316C48.0439 5.97729 48.6128 6.96114 49.0579 7.92551C49.4935 8.86918 49.3361 9.84113 49.41 10.8612C49.4624 11.5844 49.4587 12.3027 49.4587 13.0277C49.4587 13.8986 49.6537 14.7382 49.6537 15.6113C49.6537 17.8226 47.9684 19.5996 46.3389 20.9031" stroke="#FF9B3F" stroke-width="4" stroke-linecap="round"/>
<path id="Vector 8" d="M50.0435 27.4354C49.9353 26.2818 50.4597 25.5348 51.1376 24.6406C51.8074 23.7569 52.3416 22.8094 53.0875 21.9757C54.1751 20.7601 55.4759 19.9355 56.8302 19.0617C57.0686 18.9079 57.2357 18.7227 57.4531 18.5526C57.6426 18.4043 57.9457 18.472 58.168 18.4226C59.0378 18.2293 59.7195 17.6983 60.6542 17.7564C62.024 17.8414 63.4013 18.1427 64.7435 18.4117C65.3379 18.5309 65.9666 18.6311 66.5092 18.9209C67.5807 19.4931 68.3073 20.7776 68.4754 21.954C68.5346 22.3684 68.6033 22.8624 68.7083 23.2648C68.8285 23.7257 69.2037 24.0691 69.3312 24.4727C69.419 24.7508 69.3602 25.1753 69.3474 25.4639C69.3297 25.8622 68.6983 25.9431 68.4158 26.0867C67.9116 26.3431 67.5069 26.6724 66.9859 26.8938C66.132 27.2567 65.2218 27.456 64.3481 27.7712C63.5873 28.0458 63.1008 28.3611 62.3495 27.9987C61.8369 27.7515 61.0431 27.4637 60.8004 26.8938C60.6636 26.5724 60.6402 26.2121 60.5729 25.8755" stroke="#FF9B3F" stroke-width="4" stroke-linecap="round"/>
</g>
</svg>
