<svg width="174" height="87" viewBox="0 0 174 87" fill="none" xmlns="http://www.w3.org/2000/svg">
<path id="Vector" d="M133.735 73.3857C140.259 82.3274 154.189 81.7899 160 72.346C177.008 75.6742 179.451 47.9059 162.16 48.1663C160.549 37.7016 148.763 31.7297 139.438 36.4127C135.618 29.9666 127.507 27.0455 120.489 29.5614C117.158 13.3131 97.1876 6.26603 84.4136 16.4538C85.2509 -5.89249 49.961 -5.26704 51.5973 17.0498C36.0384 13.5266 20.4423 26.4229 21.1385 42.5527C-17.1467 33.643 3.2083 100.566 29.9831 74.566C39.4332 89.1832 61.2922 89.624 71.3267 75.4208C79.569 90.5939 101.891 90.9201 110.581 76.0162C117.466 82.0051 128.34 80.7785 133.735 73.3857Z" fill="white"/>
</svg>
