<svg width="208" height="104" viewBox="0 0 208 104" fill="none" xmlns="http://www.w3.org/2000/svg">
<path id="Vector" d="M48.1252 87.6948C40.3272 98.3801 23.6777 97.7378 16.7328 86.4525C-3.59586 90.4296 -6.51503 57.2468 14.1509 57.558C16.0765 45.0528 30.1627 37.9165 41.3082 43.5127C45.8743 35.8096 55.569 32.319 63.9561 35.3255C67.9382 15.909 91.8062 7.48781 107.074 19.6621C106.073 -7.04144 148.252 -6.29403 146.296 20.3743C164.892 16.164 183.532 31.575 182.7 50.8499C228.459 40.2029 204.131 120.175 172.129 89.1053C160.834 106.573 134.708 107.099 122.715 90.1267C112.864 108.258 86.185 108.648 75.7979 90.8383C67.5695 97.9949 54.5724 96.5291 48.1252 87.6948Z" fill="#90CCE9"/>
</svg>
