<svg width="140" height="140" viewBox="0 0 140 140" fill="none" xmlns="http://www.w3.org/2000/svg">
<g id="Frame 89">
<path id="Vector 4" d="M59.2742 7.90332L63.2258 18.6291L66.6129 28.2259M104.435 14.6775L89.1935 33.3065M104.435 53.0646L130.403 55.3227M23.1451 18.6291L47.4193 40.081M6.77417 55.3227H21.4516H33.8709M9.59675 106.694C10.5 106.694 29.543 93.5216 38.9516 86.9356M53.0645 102.742L44.5968 120.242M73.3871 108.952L79.0322 132.097M96.5322 95.9678L121.935 125.887M110.645 82.4194L134.919 89.7582M59.2742 42.9036C61.1559 41.3982 66.6129 38.7261 73.3871 40.081C81.8548 41.7745 89.1935 46.2904 92.0161 53.0646C94.8387 59.8388 102.177 73.9517 93.7096 82.4194C85.2419 90.8872 70 104.436 54.758 92.0162C39.5161 79.5969 38.3871 67.742 42.9032 60.4033C46.5161 54.5324 55.3225 46.2906 59.2742 42.9036Z" stroke="white" stroke-width="4" stroke-linecap="round" stroke-linejoin="round"/>
<path id="Vector 9" d="M64 57.0198C64.2883 56.7134 64.465 56.3581 64.6798 56" stroke="white" stroke-width="4" stroke-linecap="round"/>
<path id="Vector 10" d="M76.7466 60.929C76.9143 60.6984 77.5197 59.3386 77.2943 60.3247C77.1409 60.9956 77.3281 61.1884 76.5767 61.4389" stroke="white" stroke-width="4" stroke-linecap="round"/>
<path id="Vector 11" d="M58 72C58.8571 73.1785 58.8354 75.2866 59.3974 76.6644C60.0517 78.2683 61.3034 79.5851 62.6078 80.6868C63.7024 81.6114 65.0737 81.9479 66.4224 82.3675C68.5326 83.024 70.5588 82.7184 72.2199 81.1211C73.3891 79.9969 72.6165 79.1939 72.6165 77.9486" stroke="white" stroke-width="4" stroke-linecap="round"/>
</g>
</svg>
