<svg width="30" height="30" viewBox="0 0 30 30" fill="none" xmlns="http://www.w3.org/2000/svg">
<g id="image" clip-path="url(#clip0_111_526)">
<path id="Vector" d="M0.640234 14.8204C0.639531 17.341 1.30328 19.8021 2.56539 21.9714L0.519531 29.3833L8.16391 27.3944C10.2782 28.5365 12.6472 29.135 15.0545 29.1351H15.0609C23.0079 29.1351 29.477 22.7185 29.4804 14.8316C29.482 11.0099 27.9834 7.41618 25.2606 4.71246C22.5384 2.00897 18.9179 0.519322 15.0603 0.517578C7.11227 0.517578 0.643633 6.93386 0.640352 14.8204" fill="url(#paint0_linear_111_526)"/>
<path id="Vector_2" d="M0.125391 14.8158C0.12457 17.4271 0.812109 19.9763 2.11922 22.2233L0 29.9008L7.91848 27.8407C10.1003 29.021 12.5568 29.6434 15.0564 29.6443H15.0628C23.295 29.6443 29.9965 22.9969 30 14.8277C30.0014 10.8686 28.4489 7.1457 25.6289 4.34512C22.8086 1.54488 19.0586 0.00162791 15.0628 0C6.82922 0 0.128672 6.64651 0.125391 14.8158ZM4.84102 21.8363L4.54535 21.3706C3.30246 19.4097 2.64645 17.1436 2.64738 14.8167C2.65008 8.02663 8.2193 2.50233 15.0675 2.50233C18.3839 2.50372 21.5006 3.78651 23.8448 6.11395C26.1889 8.44163 27.4788 11.5358 27.478 14.8267C27.475 21.6169 21.9056 27.1419 15.0628 27.1419H15.0579C12.8298 27.1407 10.6446 26.547 8.73891 25.425L8.28539 25.1581L3.58641 26.3806L4.84102 21.8362V21.8363Z" fill="url(#paint1_linear_111_526)"/>
<path id="Vector_3" d="M11.3295 8.62165C11.0499 8.00502 10.7557 7.99257 10.4898 7.98176C10.272 7.97246 10.0231 7.97316 9.77446 7.97316C9.52556 7.97316 9.12114 8.06606 8.77931 8.43641C8.43712 8.80711 7.4729 9.70292 7.4729 11.5249C7.4729 13.347 8.81036 15.1078 8.99681 15.3551C9.18349 15.602 11.5788 19.4606 15.3724 20.945C18.5252 22.1786 19.1668 21.9333 19.8511 21.8714C20.5354 21.8098 22.0593 20.9758 22.3702 20.1111C22.6814 19.2464 22.6814 18.5052 22.5881 18.3504C22.4948 18.1961 22.2459 18.1034 21.8727 17.9183C21.4993 17.733 19.6644 16.8371 19.3223 16.7135C18.9801 16.59 18.7313 16.5284 18.4824 16.8992C18.2335 17.2694 17.5188 18.1034 17.3009 18.3504C17.0833 18.5979 16.8655 18.6287 16.4924 18.4435C16.1189 18.2577 14.9169 17.8671 13.4908 16.6056C12.3813 15.624 11.6322 14.4118 11.4145 14.0409C11.1968 13.6707 11.3912 13.47 11.5783 13.2855C11.746 13.1196 11.9517 12.853 12.1385 12.6369C12.3246 12.4206 12.3867 12.2663 12.5111 12.0193C12.6357 11.7721 12.5734 11.5558 12.4802 11.3706C12.3867 11.1854 11.6614 9.35385 11.3295 8.62165Z" fill="white"/>
</g>
<defs>
<linearGradient id="paint0_linear_111_526" x1="1448.56" y1="2887.09" x2="1448.56" y2="0.517578" gradientUnits="userSpaceOnUse">
<stop stop-color="#1FAF38"/>
<stop offset="1" stop-color="#60D669"/>
</linearGradient>
<linearGradient id="paint1_linear_111_526" x1="1500" y1="2990.08" x2="1500" y2="0" gradientUnits="userSpaceOnUse">
<stop stop-color="#F9F9F9"/>
<stop offset="1" stop-color="white"/>
</linearGradient>
<clipPath id="clip0_111_526">
<rect width="30" height="30" fill="white"/>
</clipPath>
</defs>
</svg>
